# xmcd
#
# Track frame offsets:
#	150
#	14907
#	26808
#	42450
#	59624
#	75670
#	88450
#	103920
#	114765
#	124910
#	140781
#	160366
#	177817
#	191686
#	207780
#	218121
#	235005
#	245109
#	258990
#	275525
#	293290
#	304248
#	319037
#	330862
#
# Disc length: 4619 seconds
#
# Revision: 1
# Processed by: cddbd v1.5.2PL0 Copyright (c) Steve Scherf et al.
# Submitted via: audiograbber 1.83.01
#
DISCID=68120918
DTITLE=Western Heart - Western Heart 082
DYEAR=2007
DGENRE=Country
TTITLE0=My Two Girl  - Cindy Standage
TTITLE1=Everyboddy Got Troubles  - Hal Willis
TTITLE2=When It Fanally Happens  - Joni Compretta
TTITLE3=I Just Drove By  - Perley Curtis
TTITLE4=Take Me Home Country Roads  - Erin Hay
TTITLE5=The Revival  - Tim Chesney
TTITLE6=Auctioneer  - Mike Anderson
TTITLE7=I Can´t Help It - Lynn Chisholm
TTITLE8=Kleenex Teardrop Tissue  - Hermann Lammers Meyer
TTITLE9=It´s The Way That You Do It  - Cheryl K Warner
TTITLE10=Homeward Bound  - Ervin Allen
TTITLE11=Lyin In Your Arms  - Angie Heart
TTITLE12=The Man Time Forget  - The Matekies
TTITLE13=Deeper Blue  - Cindy Standage
TTITLE14=Poor, Broke, Mixed Up, Mess Of A Heart  - Jerry Hill
TTITLE15=House Of Glass  - Blance Tate
TTITLE16=They´re Fooling You - Ernie Ashworth
TTITLE17=Hinsight´s 20/20  - Peary Forrest
TTITLE18=Wine Into Water  - Jim Russ
TTITLE19=Honest  - The Midnight Creepers
TTITLE20=Where Are You  - Eddie Drayton
TTITLE21=You Are There For Me  - Judy Weldon
TTITLE22=Blackjack County Chain  - Ron Wayne Atwood
TTITLE23=Wrong Guy Everytime - Jamie Cutler Harper
EXTD=
EXTT0=
EXTT1=
EXTT2=
EXTT3=
EXTT4=
EXTT5=
EXTT6=
EXTT7=
EXTT8=
EXTT9=
EXTT10=
EXTT11=
EXTT12=
EXTT13=
EXTT14=
EXTT15=
EXTT16=
EXTT17=
EXTT18=
EXTT19=
EXTT20=
EXTT21=
EXTT22=
EXTT23=
PLAYORDER=
